<svg aria-hidden="true" style="position:absolute;width:0;height:0" xmlns="http://www.w3.org/2000/svg" overflow="hidden"><defs><symbol id="icon-feather" viewBox="0 0 20 20"><path d="M4.254 19.567c.307-.982.77-2.364 1.391-4.362 2.707-.429 3.827.341 5.546-2.729-1.395.427-3.077-.792-2.987-1.321s3.913.381 6.416-3.173c-3.155.696-4.164-.836-3.757-1.067.939-.534 3.726-.222 5.212-1.669.766-.745 1.125-2.556.813-3.202-.374-.781-2.656-1.946-3.914-1.836s-3.231 4.79-3.817 4.754c-.584-.037-.703-2.098.319-4.013-1.077.477-3.051 1.959-3.67 3.226-1.153 2.357.108 7.766-.296 7.958S3.744 9.652 3.338 8.439c-.555 1.859-.568 3.721 1.053 6.194-.611 1.623-.945 3.491-.996 4.441-.024.759.724.922.859.493z"/></symbol><symbol id="icon-mail" viewBox="0 0 20 20"><path d="M1.574 5.286l7.5 4.029c.252.135.578.199.906.199.328 0 .654-.064.906-.199l7.5-4.029c.489-.263.951-1.286.054-1.286H1.521c-.897 0-.435 1.023.053 1.286zm17.039 2.203l-7.727 4.027c-.34.178-.578.199-.906.199s-.566-.021-.906-.199-7.133-3.739-7.688-4.028C.996 7.284 1 7.523 1 7.707V15c0 .42.566 1 1 1h16c.434 0 1-.58 1-1V7.708c0-.184.004-.423-.387-.219z"/></symbol><symbol id="icon-mobile" viewBox="0 0 20 20"><path d="M14.004 0H5.996A1.996 1.996 0 0 0 4 1.996v16.007C4 19.106 4.894 20 5.996 20h8.007A1.997 1.997 0 0 0 16 18.004V1.996A1.996 1.996 0 0 0 14.004 0zM10 19c-.69 0-1.25-.447-1.25-1s.56-1 1.25-1 1.25.447 1.25 1-.56 1-1.25 1zm4-3H6V2h8v14z"/></symbol></defs></svg>